<svg width="12" height="12" viewBox="0 0 12 12" fill="none" xmlns="http://www.w3.org/2000/svg">
<path d="M9.63577 1.15078L5.99922 4.78733L2.36267 1.15078C2.20193 0.990034 1.98391 0.899729 1.75658 0.899729C1.52925 0.899729 1.31124 0.990034 1.15049 1.15078C0.989744 1.31153 0.899439 1.52954 0.899438 1.75687C0.899439 1.9842 0.989744 2.20222 1.15049 2.36296L4.78704 5.99951L1.15049 9.63606C0.989744 9.79681 0.899439 10.0148 0.899438 10.2422C0.899439 10.4695 0.989744 10.6875 1.15049 10.8482C1.31124 11.009 1.52925 11.0993 1.75658 11.0993C1.98391 11.0993 2.20193 11.009 2.36267 10.8482L5.99922 7.21169L9.63577 10.8482C9.79652 11.009 10.0145 11.0993 10.2419 11.0993C10.4692 11.0993 10.6872 11.009 10.848 10.8482C11.0087 10.6875 11.099 10.4695 11.099 10.2422C11.099 10.0148 11.0087 9.79681 10.848 9.63606L7.2114 5.99951L10.848 2.36296C11.0087 2.20222 11.099 1.9842 11.099 1.75687C11.099 1.52954 11.0087 1.31153 10.848 1.15078C10.6872 0.990034 10.4692 0.899728 10.2419 0.899728C10.0145 0.899729 9.79652 0.990034 9.63577 1.15078Z" fill="white"/>
</svg>
