<svg width="18" height="10" viewBox="0 0 18 10" fill="none" xmlns="http://www.w3.org/2000/svg">
<path d="M8.91792 9.00323C8.71781 8.98603 8.52824 8.90605 8.37629 8.77469L1.33046 2.67729C1.13892 2.51182 1.02097 2.27704 1.00254 2.0246C0.984106 1.77216 1.06671 1.52274 1.23218 1.3312C1.39766 1.13967 1.63244 1.02171 1.88488 1.00328C2.13732 0.984853 2.38674 1.06746 2.57827 1.23293L9.0002 6.78869L15.4198 1.23293C15.6114 1.06716 15.8609 0.984259 16.1136 1.00247C16.3662 1.02069 16.6013 1.13853 16.7671 1.33006C16.9328 1.52159 17.0157 1.77114 16.9975 2.02379C16.9793 2.27645 16.8615 2.51152 16.6699 2.67729L9.62411 8.77469C9.52767 8.85809 9.41548 8.92128 9.29418 8.96054C9.17288 8.99979 9.04494 9.01431 8.91792 9.00323Z" fill="white" stroke="white" stroke-width="0.5"/>
</svg>
