<svg width="119" height="29" viewBox="0 0 119 29" fill="none" xmlns="http://www.w3.org/2000/svg">
<path d="M15.2432 19.2868V2.09935L8.32159 10.1851V27.3193L15.2432 19.2868Z" fill="white"/>
<path d="M8.32157 2.09934L1.39996 10.1851H8.32157V2.09934Z" fill="white"/>
<path d="M15.2432 2.09934L8.32159 10.1851H19.0732L25.9948 2.09934H15.2432Z" fill="white"/>
<path d="M15.2432 10.964L8.32159 18.9966V10.1851H15.2432V10.964Z" fill="#B3E5FB"/>
<path d="M35.4764 8.47072H26.4952V10.7429H29.7344V20.8271H32.2064V10.7429H35.4764" fill="white"/>
<path d="M44.5899 15.7391V13.5398H39.4134V10.6881H45.1476V8.48843H36.9417V20.8267H45.3183V18.6272H39.4134V15.7391" fill="white"/>
<path d="M46.6752 14.6215C46.6752 18.2416 49.0654 20.9717 52.235 20.9717C53.7267 20.9717 55.3538 20.1501 56.5143 18.8188L55.0988 17.0701C54.3157 17.9446 53.2843 18.4824 52.3746 18.4824C50.57 18.4824 49.2092 16.8071 49.2092 14.5853C49.2092 12.3945 50.57 10.7425 52.3746 10.7425C53.3347 10.7425 54.3654 11.3346 55.1015 12.2989L56.504 10.3582C55.433 9.13492 53.8456 8.3801 52.3283 8.3801C49.1054 8.3801 46.6752 11.0634 46.6752 14.6215Z" fill="white"/>
<path d="M67.8386 20.8271V8.48902H65.3666V13.7031H60.5855V8.48902H58.1138V20.8271H60.5855V15.9026H65.3666V20.8271" fill="white"/>
<path d="M77.0248 9.52902L76.5066 10.8647C75.546 10.1165 74.4178 9.81387 73.564 9.81387C72.1917 9.81387 71.2922 10.4195 71.2922 11.47C71.2922 14.676 77.2991 13.002 77.2841 17.5258C77.2841 19.6096 75.7136 20.9453 73.4267 20.9453C71.8718 20.9453 70.347 20.1616 69.3409 19.0396L69.8898 17.7573C70.8807 18.8793 72.2376 19.5204 73.4421 19.5204C74.9818 19.5204 75.9425 18.7906 75.9425 17.5969C75.9576 14.3198 69.9506 16.0654 69.9506 11.5948C69.9506 9.63584 71.4297 8.37132 73.6401 8.37132C74.8751 8.37132 76.1406 8.83437 77.0248 9.52902Z" fill="white"/>
<path d="M81.0049 15.584H83.7495C85.6704 15.584 86.7833 14.5867 86.7833 12.6455C86.7833 10.7574 85.6704 9.79584 83.7495 9.79584H81.0049V15.584ZM83.795 8.42435C86.4328 8.42435 87.9571 9.95607 87.9571 12.6097C87.9571 15.3701 86.4328 16.9553 83.795 16.9553H81.0049V20.8916H79.7851V8.42435" fill="white"/>
<path d="M91.2055 9.79584V13.892H96.5873V15.2634H91.2055V19.5379H97.4259V20.8916H89.9857V8.42435H97.2277V9.79584" fill="white"/>
<path d="M108.373 10.2054L107.641 11.2919C106.818 10.3123 105.659 9.72476 104.485 9.72476C102.076 9.72476 100.14 11.8976 100.14 14.6403C100.14 17.3655 102.076 19.5559 104.485 19.5559C105.659 19.5559 106.803 18.9861 107.641 18.06L108.388 19.0393C107.336 20.1971 105.903 20.9629 104.424 20.9629C101.345 20.9629 98.9052 18.1666 98.9052 14.6403C98.9052 11.1495 101.375 8.3887 104.47 8.3887C105.934 8.3887 107.351 9.08368 108.373 10.2054Z" fill="white"/>
<path d="M117.141 9.52902L116.622 10.8647C115.662 10.1165 114.534 9.81387 113.68 9.81387C112.307 9.81387 111.408 10.4195 111.408 11.47C111.408 14.676 117.415 13.002 117.4 17.5258C117.4 19.6096 115.829 20.9453 113.542 20.9453C111.987 20.9453 110.463 20.1616 109.456 19.0396L110.005 17.7573C110.996 18.8793 112.353 19.5204 113.558 19.5204C115.097 19.5204 116.058 18.7906 116.058 17.5969C116.073 14.3198 110.066 16.0654 110.066 11.5948C110.066 9.63584 111.545 8.37132 113.756 8.37132C114.991 8.37132 116.256 8.83437 117.141 9.52902Z" fill="white"/>
</svg>
