<svg width="101" height="20" viewBox="0 0 101 20" fill="none" xmlns="http://www.w3.org/2000/svg">
<path d="M12.828 13.2844V0.648708L6.88367 6.59309V19.1897L12.828 13.2844Z" fill="#03A9F4"/>
<path d="M6.8836 0.648754L0.93924 6.59314H6.8836V0.648754Z" fill="#37474F"/>
<path d="M12.828 0.648754L6.88367 6.59314H16.1173L22.0617 0.648754H12.828Z" fill="#03A9F4"/>
<path d="M12.828 7.16561L6.88367 13.0709V6.593H12.828V7.16561Z" fill="#1976D2"/>
<path d="M30.2045 5.33267H22.4914V7.00312H25.2733V14.4167H27.3962V7.00312H30.2045" fill="#455A64"/>
<path d="M38.0313 10.6764V9.0595H33.5856V6.96305H38.5102V5.34592H31.4629V14.4166H38.6569V12.7996H33.5856V10.6764" fill="#455A64"/>
<path d="M39.8222 9.85476C39.8222 12.5162 41.8749 14.5232 44.597 14.5232C45.8781 14.5232 47.2755 13.9192 48.2722 12.9405L47.0565 11.6549C46.3839 12.2978 45.4982 12.6931 44.7169 12.6931C43.1671 12.6931 41.9984 11.4615 41.9984 9.82811C41.9984 8.21754 43.1671 7.00298 44.7169 7.00298C45.5415 7.00298 46.4266 7.43828 47.0588 8.14725L48.2633 6.72049C47.3435 5.82115 45.9803 5.26624 44.6771 5.26624C41.9093 5.26624 39.8222 7.23893 39.8222 9.85476Z" fill="#455A64"/>
<path d="M57.9976 14.4167V5.34612H55.8747V9.17935H51.7686V5.34612H49.6458V14.4167H51.7686V10.7963H55.8747V14.4167" fill="#455A64"/>
<path d="M65.8868 6.11061L65.4418 7.0926C64.6168 6.54253 63.6479 6.32003 62.9147 6.32003C61.7361 6.32003 60.9636 6.76527 60.9636 7.5376C60.9636 9.89451 66.1224 8.66384 66.1096 11.9896C66.1096 13.5215 64.7607 14.5035 62.7968 14.5035C61.4614 14.5035 60.1519 13.9274 59.2878 13.1025L59.7592 12.1598C60.6102 12.9847 61.7755 13.456 62.81 13.456C64.1323 13.456 64.9573 12.9195 64.9573 12.0419C64.9703 9.63264 59.8114 10.916 59.8114 7.62934C59.8114 6.18914 61.0817 5.25951 62.98 5.25951C64.0406 5.25951 65.1275 5.59993 65.8868 6.11061Z" fill="#263238"/>
<path d="M69.3049 10.5623H71.662C73.3117 10.5623 74.2675 9.82916 74.2675 8.40203C74.2675 7.01397 73.3117 6.30708 71.662 6.30708H69.3049V10.5623ZM71.7012 5.2988C73.9665 5.2988 75.2756 6.42488 75.2756 8.37576C75.2756 10.4051 73.9665 11.5705 71.7012 11.5705H69.3049V14.4644H68.2574V5.2988" fill="#263238"/>
<path d="M78.0653 6.30708V9.31846H82.6873V10.3266H78.0653V13.4691H83.4075V14.4644H77.0178V5.2988H83.2372V6.30708" fill="#263238"/>
<path d="M92.8092 6.60816L92.1806 7.40691C91.4736 6.68669 90.4784 6.25478 89.4704 6.25478C87.4014 6.25478 85.7386 7.85216 85.7386 9.86855C85.7386 11.872 87.4014 13.4824 89.4704 13.4824C90.4784 13.4824 91.4606 13.0634 92.1806 12.3826L92.8223 13.1026C91.9188 13.9538 90.6879 14.5167 89.4178 14.5167C86.773 14.5167 84.678 12.461 84.678 9.86855C84.678 7.30221 86.799 5.27255 89.4573 5.27255C90.7142 5.27255 91.9318 5.78348 92.8092 6.60816Z" fill="#263238"/>
<path d="M100.339 6.11061L99.8937 7.0926C99.0686 6.54253 98.0998 6.32003 97.3666 6.32003C96.188 6.32003 95.4156 6.76527 95.4156 7.5376C95.4156 9.89451 100.574 8.66384 100.561 11.9896C100.561 13.5215 99.2125 14.5035 97.2486 14.5035C95.9132 14.5035 94.6036 13.9274 93.7395 13.1025L94.211 12.1598C95.0621 12.9847 96.2274 13.456 97.2617 13.456C98.584 13.456 99.4092 12.9195 99.4092 12.0419C99.4222 9.63264 94.2633 10.916 94.2633 7.62934C94.2633 6.18914 95.5335 5.25951 97.4319 5.25951C98.4925 5.25951 99.5793 5.59993 100.339 6.11061Z" fill="#263238"/>
</svg>
