<svg width="14" height="14" viewBox="0 0 14 14" fill="none" xmlns="http://www.w3.org/2000/svg">
<path d="M13.0002 6.14282H7.85735V0.999965C7.85735 0.772637 7.76705 0.554619 7.6063 0.393874C7.44555 0.233128 7.22754 0.142822 7.00021 0.142822C6.77288 0.142822 6.55486 0.233128 6.39412 0.393874C6.23337 0.554619 6.14307 0.772637 6.14307 0.999965V6.14282H1.00021C0.772881 6.14282 0.554863 6.23313 0.394118 6.39387C0.233372 6.55462 0.143066 6.77264 0.143066 6.99996C0.143066 7.22729 0.233372 7.44531 0.394118 7.60606C0.554863 7.7668 0.772881 7.85711 1.00021 7.85711H6.14307V13C6.14307 13.2273 6.23337 13.4453 6.39412 13.6061C6.55486 13.7668 6.77288 13.8571 7.00021 13.8571C7.22754 13.8571 7.44555 13.7668 7.6063 13.6061C7.76705 13.4453 7.85735 13.2273 7.85735 13V7.85711H13.0002C13.2275 7.85711 13.4456 7.7668 13.6063 7.60606C13.767 7.44531 13.8574 7.22729 13.8574 6.99996C13.8574 6.77264 13.767 6.55462 13.6063 6.39387C13.4456 6.23313 13.2275 6.14282 13.0002 6.14282Z" fill="white"/>
</svg>
