<svg width="19" height="20" viewBox="0 0 19 20" fill="none" xmlns="http://www.w3.org/2000/svg">
<path d="M8.93957 0C6.37596 0.00731219 3.91306 0.998914 2.05957 2.77V1C2.05957 0.734784 1.95421 0.48043 1.76668 0.292893C1.57914 0.105357 1.32479 0 1.05957 0C0.794354 0 0.54 0.105357 0.352463 0.292893C0.164927 0.48043 0.0595703 0.734784 0.0595703 1V5.5C0.0595703 5.76522 0.164927 6.01957 0.352463 6.20711C0.54 6.39464 0.794354 6.5 1.05957 6.5H5.55957C5.82479 6.5 6.07914 6.39464 6.26668 6.20711C6.45421 6.01957 6.55957 5.76522 6.55957 5.5C6.55957 5.23478 6.45421 4.98043 6.26668 4.79289C6.07914 4.60536 5.82479 4.5 5.55957 4.5H3.15957C4.07128 3.53701 5.20808 2.81576 6.4677 2.40114C7.72732 1.98651 9.07026 1.89152 10.3757 2.1247C11.6812 2.35788 12.9082 2.91193 13.9463 3.73699C14.9845 4.56205 15.8013 5.63226 16.3233 6.85133C16.8452 8.0704 17.0559 9.4001 16.9365 10.7208C16.817 12.0415 16.3711 13.3118 15.6388 14.4174C14.9066 15.5231 13.911 16.4293 12.7416 17.0547C11.5722 17.68 10.2657 18.0049 8.93957 18C8.67435 18 8.42 18.1054 8.23246 18.2929C8.04493 18.4804 7.93957 18.7348 7.93957 19C7.93957 19.2652 8.04493 19.5196 8.23246 19.7071C8.42 19.8946 8.67435 20 8.93957 20C11.5917 20 14.1353 18.9464 16.0106 17.0711C17.886 15.1957 18.9396 12.6522 18.9396 10C18.9396 7.34784 17.886 4.8043 16.0106 2.92893C14.1353 1.05357 11.5917 0 8.93957 0ZM8.93957 6C8.67435 6 8.42 6.10536 8.23246 6.29289C8.04493 6.48043 7.93957 6.73478 7.93957 7V10C7.93957 10.2652 8.04493 10.5196 8.23246 10.7071C8.42 10.8946 8.67435 11 8.93957 11H10.9396C11.2048 11 11.4591 10.8946 11.6467 10.7071C11.8342 10.5196 11.9396 10.2652 11.9396 10C11.9396 9.73478 11.8342 9.48043 11.6467 9.29289C11.4591 9.10536 11.2048 9 10.9396 9H9.93957V7C9.93957 6.73478 9.83421 6.48043 9.64668 6.29289C9.45914 6.10536 9.20479 6 8.93957 6Z" fill="#04A7F1"/>
</svg>
