<svg width="18" height="18" viewBox="0 0 18 18" fill="none" xmlns="http://www.w3.org/2000/svg">
<path fill-rule="evenodd" clip-rule="evenodd" d="M17.0478 15.4259L12.607 10.9589C13.5465 9.58397 13.941 7.90555 13.7132 6.25308C13.4855 4.60062 12.6518 3.09343 11.3759 2.0273C10.0999 0.961172 8.47387 0.413091 6.81679 0.490632C5.15972 0.568174 3.59129 1.26574 2.41932 2.44641C1.24734 3.62709 0.556457 5.20563 0.482249 6.87222C0.40804 8.53882 0.95586 10.1731 2.01821 11.4544C3.08056 12.7357 4.58071 13.5715 6.22426 13.7977C7.86781 14.0238 9.53609 13.6241 10.9017 12.6769L15.3415 17.1439C15.5681 17.3715 15.8752 17.4992 16.1954 17.499C16.5156 17.4989 16.8226 17.3708 17.0488 17.1429C17.2751 16.9151 17.4021 16.6062 17.4019 16.2842C17.4017 15.9622 17.2744 15.6535 17.0478 15.4259ZM2.91293 7.18094C2.91254 6.48209 3.08352 5.79393 3.41072 5.1774C3.73793 4.56087 4.21126 4.03499 4.78881 3.64635C5.36635 3.25771 6.03029 3.01828 6.72181 2.9493C7.41333 2.88031 8.11108 2.98389 8.7533 3.25084C9.39551 3.5178 9.96237 3.93989 10.4036 4.47975C10.8449 5.01962 11.147 5.66059 11.2831 6.3459C11.4193 7.03121 11.3853 7.73971 11.1841 8.40865C10.983 9.07759 10.621 9.68632 10.13 10.1809C9.53936 10.7753 8.78663 11.1801 7.9671 11.3441C7.14757 11.5081 6.29809 11.4239 5.52616 11.1022C4.75423 10.7805 4.09454 10.2357 3.63061 9.53679C3.16667 8.83788 2.91934 8.01626 2.9199 7.17594L2.91293 7.18094Z" fill="#242B2E" stroke="#F6F8FA"/>
</svg>
