<svg width="25" height="24" viewBox="0 0 25 24" fill="none" xmlns="http://www.w3.org/2000/svg">
<path fill-rule="evenodd" clip-rule="evenodd" d="M23.2301 20.5679L17.309 14.6119C18.5616 12.7786 19.0877 10.5407 18.784 8.33745C18.4803 6.13415 17.3687 4.12457 15.6675 2.70307C13.9662 1.28156 11.7982 0.550787 9.58873 0.654176C7.37929 0.757565 5.28806 1.68765 3.72543 3.26188C2.1628 4.83612 1.24162 6.94083 1.14267 9.16297C1.04373 11.3851 1.77415 13.5642 3.19062 15.2726C4.60708 16.981 6.60729 18.0953 8.79869 18.3969C10.9901 18.6984 13.2145 18.1655 15.0352 16.9026L20.955 22.8586C21.2571 23.162 21.6666 23.3323 22.0935 23.3321C22.5204 23.3318 22.9298 23.161 23.2315 22.8573C23.5332 22.5535 23.7025 22.1417 23.7023 21.7123C23.702 21.283 23.5322 20.8713 23.2301 20.5679ZM4.38359 9.57459C4.38306 8.64279 4.61103 7.72524 5.0473 6.9032C5.48358 6.08116 6.11469 5.37999 6.88475 4.8618C7.65481 4.34361 8.54006 4.02438 9.46209 3.93239C10.3841 3.84041 11.3145 3.97851 12.1707 4.33445C13.027 4.69039 13.7828 5.25318 14.3712 5.973C14.9596 6.69283 15.3623 7.54746 15.5439 8.4612C15.7254 9.37495 15.68 10.3196 15.4119 11.2115C15.1437 12.1034 14.6609 12.9151 14.0064 13.5746C13.2188 14.3671 12.2152 14.9068 11.1225 15.1255C10.0298 15.3441 8.89713 15.2319 7.86789 14.8029C6.83865 14.374 5.95907 13.6476 5.34048 12.7157C4.7219 11.7838 4.39213 10.6884 4.39287 9.56791L4.38359 9.57459Z" fill="#04A7F1" stroke="white"/>
</svg>
